# xmcd
#
# Track frame offsets: 
#        150
#        12358
#        31307
#        43622
#        72970
#        85068
#        109446
#        121233
#        138501
#        158315
#        173190
#        186679
#        202428
#        215841
#        227940
#
# Disc length: 3264 seconds
#
# Revision: 0
# Processed by: cddbd v1.4PL0 Copyright (c) Steve Scherf et al.
# Submitted via: ExactAudioCopy v0.90b4
#
DISCID=e00cbe0f
DTITLE=Various Artist - Down Home Urban Blues Classics
DYEAR=1900
DGENRE=Urban Blues
TTITLE0=Sonny Boy Williamson: Pontiac Blues
TTITLE1=Bib Mamma Thornton: Big Mamma's Bummble Bee
TTITLE2=Big Joe Duskin: Cincinnati Stomp
TTITLE3=Earl Hooker: Anna Lee
TTITLE4=Charlie Musselwhite: Up and Down the Avenue
TTITLE5=John Littlejohn: Been Around the World
TTITLE6=Joe Turner and Pete Johnson: Wine-O-Baby Boogie
TTITLE7=Katie Webster: I Know That's Right
TTITLE8=Omar Sharriff: The Raven
TTITLE9=Bee Houston: You Think I'm Your Good Thing
TTITLE10=Juke Boy Bonner: Going Back to the Country
TTITLE11=L.C. "Good Rockin'" Robinson: Ups and Downs
TTITLE12=Piano Red: Atlanta Bounce
TTITLE13=Johhny Young: Wild, Wild, Woman
TTITLE14=The Charles Ford Band: Gibson Creek Shuffle
EXTD=
EXTT0=
EXTT1=
EXTT2=
EXTT3=
EXTT4=
EXTT5=
EXTT6=
EXTT7=
EXTT8=
EXTT9=
EXTT10=
EXTT11=
EXTT12=
EXTT13=
EXTT14=
PLAYORDER=
